<svg width="38" height="42" viewBox="0 0 38 42" fill="none" xmlns="http://www.w3.org/2000/svg">
<g id="Frame 7667">
<g id="Group 7700">
<path id="Vector" d="M27.8737 30.4372H12.4434V10.0039C14.6135 11.0246 26.3158 16.5193 27.8737 30.4372Z" fill="#020E7C"/>
<path id="Vector_2" d="M33.208 30.4372H30.1288C29.5008 14.8415 14.4773 8.81919 12.4434 8.01817V4.87402C16.378 6.02299 31.5683 11.9717 33.208 30.4372Z" fill="#020E7C"/>
<path id="Vector_3" d="M37.5525 30.4376H34.9787C33.209 10.0043 18.5534 3.57304 12.4434 2.92445V0C37.9289 5.35588 37.086 30.7929 37.5515 30.4376H37.5525Z" fill="#020E7C"/>
<path id="Vector_4" d="M3.04895 18.9326H12.4877V30.499H3.04895C1.89151 30.499 0.952148 29.5571 0.952148 28.3966V21.035C0.952148 19.8745 1.89151 18.9326 3.04895 18.9326Z" fill="#020E7C"/>
<path id="Vector_5" d="M12.4434 39.8273V30.3633H23.9789V39.8273C23.9789 40.9878 23.0395 41.9297 21.8821 41.9297H14.5402C13.3827 41.9297 12.4434 40.9878 12.4434 39.8273Z" fill="#020E7C"/>
</g>
</g>
</svg>
